PathFileType	4	(X/Y/Z)	D:\TRACE\v60_Jaco2_6-2-23\JustBodyDRS_Motion2_4-platform.trc
DataRate	CameraRate	NumFrames	NumMarkers	Units	OrigDataRate	OrigDataStartFrame	OrigNumFrames
100.00	100.00	      24	5	mm	100.00	866	      6921
Frame#	Time	Left_Front			Right_Front			Left_Aft			Right_Aft			Post			
		X1	Y1	Z1	X2	Y2	Z2	X3	Y3	Z3	X4	Y4	Z4	X5	Y5	Z5	

866	8.650	-750.60785	51.68434	-627.62665	819.38794	53.18501	-632.57245	-658.59741	-23.05830	505.03607	783.25940	-24.80906	514.18146	35.77016	1369.22668	-865.75208	
867	8.660	-750.31677	53.41777	-627.34882	819.51947	54.29929	-632.28687	-658.50763	-23.58853	505.17426	783.65930	-25.24984	515.16626	35.59417	1370.83362	-862.72180	
868	8.670	-750.37390	54.31571	-626.80768	819.73914	55.57313	-631.77698	-658.42493	-24.27050	505.43378	783.63019	-26.28190	515.26697	36.16434	1372.34985	-859.36084	
869	8.680	-750.08313	55.29881	-626.50415	819.89307	56.65153	-631.72180	-658.24860	-24.99962	505.46783	784.05042	-27.21217	516.20996	36.32477	1373.70190	-856.60583	
870	8.690	-749.83252	56.21245	-626.12122	820.00885	57.37243	-631.41541	-657.97687	-26.04469	506.00131	784.20398	-27.96254	515.94916	36.42838	1374.87122	-853.40887	
871	8.700	-749.83386	57.32756	-626.01917	820.07941	58.40047	-630.84595	-657.93939	-26.60149	506.28522	783.98468	-28.55823	516.21289	36.82528	1376.07617	-850.76141	
872	8.710	-749.84448	58.64988	-625.57715	820.02063	59.57287	-630.74323	-657.95642	-27.38867	506.51514	784.16266	-29.31571	516.47559	36.35780	1377.56409	-848.88220	
873	8.720	-749.90796	59.26019	-625.25031	820.09717	60.46208	-630.21832	-658.79681	-26.80995	505.80344	784.20117	-30.06380	516.35461	36.50552	1378.79431	-847.42993	
874	8.730	-750.10681	60.00375	-624.76447	820.01837	61.14983	-630.02142	-658.71820	-27.66569	505.79865	784.17468	-30.79461	516.43878	36.56535	1380.01770	-846.01813	
875	8.740	-750.08722	60.86461	-624.56598	820.09674	62.00999	-629.80444	-658.51477	-28.58459	506.25229	783.52795	-31.49224	517.30316	36.44484	1381.32788	-844.46051	
876	8.750	-750.13153	61.92970	-624.35248	820.01923	62.90016	-629.56085	-658.82111	-28.85686	506.00479	783.81567	-32.62587	516.96033	36.52308	1382.33826	-843.38959	
877	8.760	-750.20508	62.94169	-623.81927	819.86182	63.79101	-629.10706	-658.79071	-29.88543	506.64185	783.81812	-33.02046	517.33844	36.83276	1383.75769	-841.57092	
878	8.770	-750.54327	63.81580	-623.74072	819.48633	64.30655	-628.86395	-659.02301	-30.54376	506.97128	783.56018	-33.59688	517.52527	36.17373	1385.28638	-839.88617	
879	8.780	-750.85687	64.43939	-623.40637	819.28015	65.41415	-628.44452	-659.49182	-30.35494	506.42438	783.37769	-34.09485	517.55463	36.03727	1386.28284	-837.56335	
880	8.790	-751.17175	65.36555	-623.16394	818.90088	66.32648	-628.21082	-659.19067	-32.56758	507.74249	783.11792	-34.74527	517.68091	35.25412	1387.30347	-835.44781	
881	8.800	-751.53143	66.07146	-623.07672	818.52319	66.81413	-628.16223	-659.48511	-33.09510	507.99951	782.91791	-35.02198	517.78925	34.75539	1387.83948	-832.32745	
882	8.810	-751.71472	66.63223	-622.90271	818.25824	67.18389	-627.97723	-659.80914	-33.18233	507.82117	782.22144	-35.35384	518.15680	34.71893	1388.59265	-829.47748	
883	8.820	-752.10010	67.26013	-622.26392	818.03497	67.83801	-627.67072	-660.12158	-33.57533	507.85834	781.59851	-35.65594	517.97083	34.73063	1389.21680	-826.86749	
884	8.830	-752.39508	67.45872	-622.11804	817.83875	68.33646	-627.32269	-660.54901	-34.02696	508.07861	781.18164	-36.08500	518.45972	34.29479	1389.72595	-825.22870	
885	8.840	-752.91809	67.74353	-622.03644	817.35144	68.99090	-627.20837	-660.87915	-34.48466	508.18585	781.24695	-36.61319	518.17584	33.31275	1390.35864	-824.10571	
886	8.850	-753.29877	68.18214	-621.87006	816.78015	69.46296	-627.19714	-661.24847	-34.70693	507.89670	780.97223	-36.96787	518.46271	33.04018	1390.83875	-824.01050	
887	8.860	-753.55273	68.79709	-621.73718	816.26093	69.88426	-627.02496	-661.79755	-35.24415	508.19839	780.61395	-37.43835	518.43427	32.54097	1391.72253	-824.43573	
888	8.870	-754.09961	69.69434	-621.80933	815.81036	70.30376	-626.91180	-662.19366	-35.50164	508.44211	779.63556	-37.55680	518.39105	32.28382	1392.38330	-824.75043	
889	8.880	-754.72211	70.10629	-621.66925	815.35901	70.64431	-626.71844	-662.93134	-35.43822	508.32822	779.12231	-37.82381	518.74567	32.04623	1393.06152	-825.25537	
